<svg xmlns="http://www.w3.org/2000/svg" xmlns:xlink="http://www.w3.org/1999/xlink" width="446.455" height="205.019" viewBox="0 0 446.455 205.019"><defs><style>.a{fill:url(#a);}.b{fill:url(#b);}.c{fill:url(#c);}.d{fill:url(#d);}</style><linearGradient id="a" x1="3.605" y1="-0.874" x2="-1.482" y2="1.268" gradientUnits="objectBoundingBox"><stop offset="0" stop-color="#00cdd2"/><stop offset="1" stop-color="#009bb3"/></linearGradient><linearGradient id="b" x1="0.782" y1="0.265" x2="-0.441" y2="1.577" xlink:href="#a"/><linearGradient id="c" x1="0.693" y1="0.519" x2="-0.101" y2="1.451" xlink:href="#a"/><linearGradient id="d" x1="3.521" y1="-0.277" x2="-0.25" y2="0.724" xlink:href="#a"/></defs><g transform="translate(1037.455 -4096.935)"><path class="a" d="M242.857,257.981c-.657,3.4-1.214,6.5-1.646,9.437-4.363.63-10.75-1.745-11.281-5.4.9-9.617,8.1-46.158,14.295-65.878,2.942-.576,16.634.747,15.293,4.246a234.191,234.191,0,0,0-7.692,22.238c3.6-7.988,14.313-21.186,20.916-28.184l1.655-5.4a11.91,11.91,0,0,1,12.675,2.177c-5.766,10.8-13.791,28.733-12.423,38.161-11.947-.126-7.035-16.8-5.4-22.211C262.774,216,252.96,225.614,242.857,257.981Z" transform="translate(-1197.146 3974.425)"/><path class="b" d="M519.51,155.6c-1.8-2.753-7.827-4.5-11.695-4.057-5.065,2.7-9.536,9.572-13.557,17.488,5.829-18.235,11.83-35.345,14.394-40.176,1.385-3.364-12.343-4.822-15.293-4.111-6.018,16.247-15.14,49.415-20.862,75.009-4.948,5.613-10.957,14.7-17.092,23.911.765-10.606,12.262-49.208,17.749-59.922,1.358-3.5-12.342-4.813-15.293-4.246-.675,2.249-1.358,4.5-2,7.044-5.173-1.979-11.389-4.237-16.265-5.11-.3-.108-.423.054-.423.054-8.573,5.668-17.245,24.811-21.276,42.551a10.505,10.505,0,0,0-2.978,2.213c-5.137,5.209-14.987,23.453-21.95,33.942,3.248-15.293,14.061-54.633,23.5-81.729,13.674-.837,27.987-1.187,40.176-4.4,2.843-3.14,4.282-8.1,4.5-11.29-12.217,4.939-27.753,7.764-42.137,8.7,1.466-3.8,2.924-7.6,4.282-11.11,1.5-3.517-12.765-4.759-15.7-4.183-1.421,4.084-3.158,9.941-5.056,16.679-23.687,1.142-53.076,1.529-71.149,4.867a50.636,50.636,0,0,0-7.7,17.218c16.094-7.944,50.558-13.089,76.817-15.293-3.985,15.167-9.581,36.128-13.737,53.472-4.786,5.658-10.462,14.232-16.193,22.922.756-10.6,12.262-49.2,17.749-59.913,1.358-3.508-12.343-4.822-15.293-4.255-.675,2.258-1.349,4.5-1.988,7.044-5.173-1.979-11.4-4.237-16.265-5.11-.306-.1-.423.063-.423.063-9.644,6.369-19.422,29.795-22.562,49.091-12.172,15.149-31.351,31.486-33.555,21.707-1.035-3.158-.261-9.734,1.484-17.461a39.193,39.193,0,0,0,13-5.793,39.951,39.951,0,0,0,14.142-15.842c2.492-5.173,3.724-10.651,4.147-18.253-4.228-4.417-12.181-6.711-17.227-7.854-18.388,10-29.957,41.139-31.09,58.123,2.474,10.13,9.527,15.14,18.082,16.634,8.735-1.268,20.745-11.65,30.038-22.184a38.958,38.958,0,0,0,.7,10.246c1.682,2.627,7.674,4.345,11.5,3.931C350.6,242.1,357.033,228.95,362.044,216a192.817,192.817,0,0,0-3.31,21.752c1.376,3.535,7.2,6.135,11.695,5.344,2.438-3.526,7.961-11.128,13.683-18.316-1.646,7.71-2.7,13.872-2.789,17.164,1.376,3.535,7.2,6.135,11.695,5.344,3.481-5.011,14.744-22.337,23.273-33.2-.747,6.1-.756,11.632.225,15.842,1.673,2.636,7.674,4.354,11.488,3.94,7.6-4.12,14.025-17.263,19.045-30.209a190.647,190.647,0,0,0-3.311,21.743c1.376,3.535,7.2,6.144,11.695,5.344,2.6-3.742,8.69-12.127,14.8-19.692-.819,4.12-1.5,7.872-1.988,11.083,2.7,3.6,6,4.732,10.372,5.11.414-2.078,1.394-6.243,2.564-11.011a101.659,101.659,0,0,0,15.482,7.665c9.959-6.612,20.115-31.657,22.85-51.457l.549-5.11A38.889,38.889,0,0,0,519.51,155.6ZM321.22,186.246c-.153,13.818-5.551,28.113-19.26,32.682C305.918,206.568,314.833,192.777,321.22,186.246Zm23.255,49.361c-4.669-.468.621-20.493,1-21.842,3.275-12.118,8.771-25.7,13.494-31.99l9.194,6.153C362.763,200.19,353.138,228.752,344.474,235.607Zm85.012-12.334c-4.669-.477.612-20.5.99-21.842,3.275-12.118,8.78-25.711,13.494-31.99l9.23,6.126C447.767,187.856,438.114,216.419,429.487,223.274Zm76.034-39.349c-3.275,12.118-8.915,25.729-13.611,32.008l-9.185-5.847a.54.54,0,0,1,.081-.441c2.222-6.5,16.93-46.725,22.985-47.6C507.779,167.849,507.725,175.118,505.521,183.925Z" transform="translate(-1202.443 3980.804)"/><path class="c" d="M592.024,135.476c-2.375,7.386-5.263,18.154-7.916,29.606-2.375,6.378-4.876,12.918-7.476,18.757-4.543,10.291-9.176,19.009-11.308,18.172-4.669-.477.621-20.5,1-21.851,2.573-9.995,5.587-20.925,9.653-29.561,1.215-3.49-11.695-5.209-14.312-4.5a300,300,0,0,0-8.366,35.867l-.342.171c-9,5.191-19.791,20.844-25.6,29.588.9-6.6,4.219-19.44,7.79-32.467,11.695-16.355,26.988-40.986,28.787-60.075-2.7-1.907-6.873-3.751-13.089-3.994-16.274,13.566-33.429,70.673-35.318,98.245,1.376,3.535,7.916,6.036,12.28,5.4,5.11-8.564,15.167-21.491,24.4-29.093-.9,7.521-1.053,14.295,0,18.937,1.8,2.618,7.808,4.327,11.632,3.922,5.865-3.149,10.894-12.073,15.176-22.184-1.43,7.971-.486,8.1-2.8,15.941-1.97,10.13,2.555,29.111-47.211,34.185h0c-74.856,4.741-266.444,33.105-279.992,38.683-6.792,2.7-8.006,10.219-8.1,18.424,9.41-8.645,217.29-38.854,292.136-46.779,22.265-2.357,38.989-9.311,46.276-18.559,10.21-12.828,10.435-33.285,14.258-49.478a280.827,280.827,0,0,1,13.548-43.091C608.667,136.223,594.966,134.9,592.024,135.476Zm-33.411-12.361C556.247,135.53,547,152.964,538.66,166.827,540.675,159.882,553.917,118.447,558.613,123.115Z" transform="translate(-1198.249 3981.745)"/><path class="d" d="M223.1,154.14h0c-8.843.333-25.333,8.627-32.152,14.259-12.594,10.417-20.421,22.652-26.574,38.332a148.754,148.754,0,0,0-7.161,24.649l-3.427,16.957c-3.6,25.684-2.375,51.988,5.4,69.269,4.21,3.239,12.217,5.874,19.332,6.513,17.7-5.1,44.566-31.189,43.649-47.022-3.6-7.818-12.513-11.479-20.583-10.8,6.225,7.395-7.934,37.531-24.1,47.463-10-21.59-4.714-73.659,12.289-106.9,5.191-9.338,16.418-23.138,23.983-24.937-.3,7.26-2.888,16.076-4.246,21.33,7.557-.513,17.488-6.711,19.26-13.44A83.771,83.771,0,0,0,223.1,154.14Z" transform="translate(-1189.307 3977.834)"/></g></svg>