<?xml version="1.0" encoding="utf-8"?>
<!-- Generator: Adobe Illustrator 16.0.0, SVG Export Plug-In . SVG Version: 6.00 Build 0)  -->
<!DOCTYPE svg PUBLIC "-//W3C//DTD SVG 1.1//EN" "http://www.w3.org/Graphics/SVG/1.1/DTD/svg11.dtd">
<svg version="1.1" id="Layer_1" xmlns="http://www.w3.org/2000/svg" xmlns:xlink="http://www.w3.org/1999/xlink" x="0px" y="0px"
	 width="271.44px" height="64.08px" viewBox="4184.28 1695.96 271.44 64.08" enable-background="new 4184.28 1695.96 271.44 64.08"
	 xml:space="preserve">
<path fill="#F0F4F7" d="M4259.639,1706.442c0.728,0,1.379,0.327,1.816,0.841c-1.576,0.497-2.905,1.548-3.762,2.925
	c-0.277-0.39-0.44-0.866-0.44-1.381C4257.254,1707.51,4258.322,1706.442,4259.639,1706.442 M4273.127,1713.037
	c-0.365,2.344-2.392,4.138-4.839,4.138c-0.12,0-0.24-0.004-0.359-0.013c1.556-0.297,2.759-1.589,2.92-3.189
	C4271.667,1713.786,4272.435,1713.466,4273.127,1713.037z M4249.926,1725.491c-2.011-2.125-3.245-4.993-3.245-8.149
	c0-1.336,0.221-2.62,0.628-3.818c0.684,3.308,2.746,6.111,5.558,7.785c2.539-2.492,6.018-4.03,9.856-4.03
	c0.737,0,1.46,0.057,2.166,0.166c-8.712,2.032-15.204,9.841-15.218,19.169c-0.657-1.626-1.019-3.403-1.019-5.263
	C4248.652,1729.258,4249.109,1727.275,4249.926,1725.491z M4243.373,1706.465l0.042,0c-5.581,2.955-9.499,8.631-9.984,15.262
	c-0.595-1.344-0.926-2.831-0.926-4.396c0-2.224,0.669-4.292,1.816-6.015c-1.656-0.414-3.39-0.633-5.175-0.633
	c-7.032,0-13.268,3.406-17.147,8.66c3.423-7.189,10.754-12.159,19.247-12.159c2.203,0,4.329,0.335,6.328,0.957
	C4239.252,1707.08,4241.242,1706.465,4243.373,1706.465z M4247.448,1744.082c0.15,0,0.301,0.001,0.451,0.002
	c-0.736-0.263-1.462-0.578-2.175-0.947c-3-1.559-5.354-3.869-6.954-6.58c-1.308,0.11-2.631,0.099-3.953-0.04
	c-1.899,2.231-3.264,4.9-3.962,7.745c-2.37-2.617-3.453-6.191-2.923-9.692c-0.209-0.101-0.417-0.204-0.625-0.312
	c-1.478-0.768-2.827-1.686-4.038-2.727c-0.723,0.966-1.377,2.001-1.951,3.107c-1.619,3.118-2.423,6.444-2.493,9.735
	c-2.944-5.789-3.313-12.787-0.503-19.089c-1.101-2.119-1.837-4.412-2.173-6.776c3.947,7.386,12.212,13.209,20.556,12.515
	c-0.402-1.972-0.422-4.428-0.101-6.28c0.297-1.712,0.858-3.41,1.702-5.034c0.826-1.592,1.865-3.003,3.063-4.215
	c-2.907,10.4,0.49,21.603,8.617,28.645c7.206,0.334,13.753,2.077,18.881,4.77c-6.125-0.706-12.709-1.093-19.565-1.093
	c-8.716,0-16.992,0.623-24.445,1.738C4230.713,1746.167,4238.674,1744.082,4247.448,1744.082z M4263.492,1710.849l2.705-0.852
	l-0.35,0.476l-0.05,0.901L4263.492,1710.849z M4414.998,1742.911h-5.896v3.957h5.896v-0.698h-4.887v-1.049h2.947v-0.614h-2.947
	v-0.892h4.887V1742.911z M4402.116,1746.868h5.801v-0.817h-4.792v-3.14h-1.009V1746.868L4402.116,1746.868z M4398.782,1745.589
	c1.375,0,1.979-0.648,1.979-1.336c0-1.06-1.025-1.342-2.405-1.342h-3.756v3.957h1.009v-1.279H4398.782L4398.782,1745.589z
	 M4398.676,1743.639c0.653,0,0.965,0.27,0.965,0.62c0,0.36-0.327,0.614-0.965,0.614h-3.067v-1.234H4398.676L4398.676,1743.639z
	 M4386.818,1742.911h-1.472v3.957h0.999v-3.073l2.474,3.073h0.594l2.519-3.073v3.073h1.009v-3.957h-1.432l-2.339,2.897
	L4386.818,1742.911z M4383.683,1746.868v-3.957h-1.008v3.957H4383.683L4383.683,1746.868z M4371.037,1742.911h-5.897v3.957h5.897
	v-0.698h-4.889v-1.049h2.948v-0.614h-2.948v-0.892h4.889V1742.911L4371.037,1742.911z M4362.601,1744.891
	c0,0.687-0.749,1.188-2.604,1.188h-1.938v-2.372h1.938C4361.869,1743.707,4362.601,1744.196,4362.601,1744.891z M4363.724,1744.891
	c0-1.061-1.026-1.979-3.659-1.979h-3.016v3.957h3.016C4362.653,1746.868,4363.724,1745.916,4363.724,1744.891z M4352.734,1743.628
	l1.111,1.59h-2.497l1.121-1.59H4352.734z M4354.279,1745.86l0.716,1.008h1.252l-2.881-3.985h-1.481l-2.881,3.985h1.2l0.729-1.008
	H4354.279z M4333.251,1743.733v3.135h1.015v-3.135h2.654v-0.822h-6.317v0.822H4333.251z M4327.521,1745.504
	c1.456,0,1.957-0.604,1.957-1.251c0-1.025-1.178-1.342-1.911-1.342h-4.323v3.957h1.01v-1.319h1.944l2.046,1.319h1.561
	L4327.521,1745.504z M4327.393,1743.633c0.643,0,0.963,0.271,0.963,0.614c0,0.338-0.338,0.593-0.991,0.593h-3.111v-1.207H4327.393
	L4327.393,1743.633z M4318.405,1743.555c1.494,0,2.293,0.591,2.293,1.318c0,0.716-0.799,1.303-2.293,1.303
	c-1.494,0-2.3-0.587-2.3-1.303C4316.105,1744.146,4316.911,1743.555,4318.405,1743.555z M4318.405,1742.747
	c-2.069,0-3.417,0.931-3.417,2.126s1.348,2.113,3.417,2.113c2.074,0,3.422-0.918,3.422-2.113S4320.479,1742.747,4318.405,1742.747z
	 M4309.181,1746.868v-1.55h2.948v-0.648h-2.948v-1.06h4.809v-0.699h-5.818v3.957H4309.181L4309.181,1746.868z M4300.392,1742.911
	h-1.472v3.957h0.998v-3.073l2.474,3.073h0.593l2.52-3.073v3.073h1.009v-3.957h-1.432l-2.339,2.897L4300.392,1742.911z
	 M4294.082,1743.555c1.494,0,2.294,0.591,2.294,1.318c0,0.716-0.8,1.303-2.294,1.303c-1.494,0-2.3-0.587-2.3-1.303
	C4291.782,1744.146,4292.588,1743.555,4294.082,1743.555z M4294.082,1742.747c-2.069,0-3.417,0.931-3.417,2.126
	s1.348,2.113,3.417,2.113c2.074,0,3.421-0.918,3.421-2.113S4296.156,1742.747,4294.082,1742.747z M4377.95,1745.218
	c1.662,0.011,2.085,0.168,2.085,0.443c0,0.339-0.637,0.616-2.035,0.616c-1.138,0-2.052-0.187-2.791-0.733l-0.383,0.614
	c0.841,0.58,1.806,0.828,3.072,0.828c1.899,0,3.28-0.53,3.28-1.415c0-0.811-0.997-1.138-3.172-1.148
	c-1.518,0-1.918-0.17-1.918-0.457c0-0.322,0.553-0.524,1.691-0.524c1.116,0,2.069,0.18,2.863,0.659l0.355-0.647
	c-0.823-0.474-1.821-0.705-3.089-0.705c-1.9,0-2.971,0.502-2.971,1.296C4374.939,1744.851,4375.91,1745.205,4377.95,1745.218z
	 M4342.085,1742.911h-1.47v3.957h0.997v-3.073l2.474,3.073h0.593l2.521-3.073v3.073h1.008v-3.957h-1.431l-2.34,2.897
	L4342.085,1742.911z M4289.509,1746.22l-0.558-0.71c-0.463,0.384-1.077,0.637-2.137,0.637c-1.584,0-2.322-0.563-2.322-1.273
	c0-0.728,0.738-1.285,2.322-1.285c1.003,0,1.584,0.225,2.058,0.575l0.54-0.705c-0.709-0.439-1.459-0.711-2.598-0.711
	c-2.159,0-3.439,0.913-3.439,2.126c0,1.206,1.252,2.113,3.439,2.113C4288.021,1746.986,4288.804,1746.694,4289.509,1746.22z
	 M4426.856,1724.218c0,0.533-0.134,1.029-0.4,1.49s-0.63,0.823-1.09,1.088s-0.957,0.398-1.489,0.398
	c-0.53,0-1.025-0.133-1.485-0.398c-0.461-0.265-0.823-0.627-1.09-1.088s-0.4-0.957-0.4-1.49c0-0.53,0.134-1.026,0.4-1.488
	c0.267-0.461,0.629-0.824,1.09-1.09c0.46-0.265,0.955-0.397,1.485-0.397c0.532,0,1.029,0.133,1.489,0.397
	c0.46,0.266,0.823,0.629,1.09,1.09C4426.723,1723.192,4426.856,1723.688,4426.856,1724.218z M4426.278,1724.218
	c0-0.663-0.234-1.229-0.703-1.698c-0.47-0.469-1.036-0.704-1.698-0.704c-0.663,0-1.229,0.234-1.698,0.704
	c-0.47,0.469-0.705,1.035-0.705,1.698s0.235,1.229,0.705,1.699c0.469,0.469,1.035,0.704,1.698,0.704
	c0.662,0,1.229-0.234,1.698-0.704C4426.044,1725.447,4426.278,1724.881,4426.278,1724.218z M4422.527,1722.627h1.424
	c0.403,0,0.694,0.081,0.875,0.244c0.181,0.162,0.271,0.38,0.271,0.653c0,0.213-0.068,0.398-0.206,0.554
	c-0.138,0.156-0.355,0.27-0.652,0.339c0.123,0.047,0.213,0.097,0.271,0.148c0.081,0.073,0.165,0.181,0.253,0.324
	c0.005,0.01,0.177,0.317,0.516,0.92h-0.937c-0.305-0.606-0.508-0.968-0.612-1.086c-0.104-0.119-0.208-0.178-0.312-0.178
	c-0.024,0-0.057,0.003-0.099,0.012v1.252h-0.791V1722.627z M4423.318,1723.977h0.344c0.229,0,0.391-0.037,0.484-0.111
	c0.092-0.074,0.141-0.169,0.141-0.287c0-0.117-0.046-0.212-0.136-0.286c-0.089-0.074-0.241-0.111-0.458-0.111h-0.375V1723.977z
	 M4271.903,1722.729c-0.224,5.141-0.34,10.288-0.352,15.436c1.604,0,3.21,0,4.813,0c-0.003-4.116,0.078-8.231,0.264-12.343
	c1.871-0.121,3.744-0.202,5.617-0.277c-0.008,4.207-0.002,8.414-0.002,12.621c1.606,0,3.212,0,4.819,0c0-4.204,0-8.405,0.002-12.608
	c1.832,0.076,3.673,0.082,5.494,0.283l0.102,0.094c0.246,4.071,0.267,8.152,0.272,12.228c1.606,0.005,3.212,0.003,4.822,0
	c-0.008-5.146-0.1-10.292-0.351-15.433C4288.935,1721.866,4280.375,1721.871,4271.903,1722.729 M4301.458,1722.455
	c-0.044,5.235-0.008,10.472-0.018,15.71c1.588,0,3.178,0,4.769,0c-0.01-4.258,0.047-8.513,0-12.77
	c3.831-0.042,7.666-0.131,11.496,0.023c0.397,0.009,0.795,0.068,1.18,0.186c0.162,1.56,0.154,3.131-0.04,4.689
	c-3.293,0.162-6.595,0.072-9.892,0.086c-0.019,0.592,0.558,0.85,0.939,1.185c2.787,2.195,5.56,4.404,8.341,6.604
	c2.025-0.01,4.049,0.01,6.075-0.01c-1.927-1.59-3.896-3.127-5.837-4.702c1.662-0.097,3.32-0.225,4.98-0.307
	c0.654-3.413,0.668-6.956,0.007-10.369c-7.253-0.984-14.591-0.657-21.883-0.437L4301.458,1722.455z M4326.662,1722.875
	c-0.633,4.798-0.633,9.932,0,14.73c7.485,1.032,15.1,1.02,22.602,0.154c0.161-1.175,0.288-2.354,0.372-3.537
	c-6.202,0.521-11.706,1.002-18.002,0.444c-0.284-2.857-0.284-5.995,0-8.854c6.296-0.557,11.8-0.076,18.002,0.446
	c-0.084-1.184-0.211-2.363-0.372-3.538C4341.762,1721.856,4334.147,1721.845,4326.662,1722.875 M4358.457,1725.827
	L4358.457,1725.827c-0.315,2.938-0.259,5.903-0.011,8.839c4.428,0.389,8.874,0.345,13.303,0.028
	c0.223-2.957,0.296-5.936-0.027-8.888C4367.311,1725.461,4362.867,1725.432,4358.457,1725.827 M4353.479,1722.724
	c7.705-0.843,15.508-0.861,23.213,0c0.435,5.012,0.406,10.053,0.01,15.067c-7.698,0.795-15.474,0.815-23.173-0.008
	C4353.021,1732.786,4353.104,1727.734,4353.479,1722.724z M4385.666,1725.827L4385.666,1725.827c-0.315,2.935-0.259,5.9-0.012,8.836
	c4.424,0.396,8.875,0.344,13.304,0.031c0.223-2.957,0.295-5.936-0.028-8.888C4394.518,1725.461,4390.076,1725.432,4385.666,1725.827
	 M4380.688,1722.724c7.704-0.843,15.507-0.861,23.213,0c0.434,5.012,0.405,10.053,0.011,15.067
	c-7.702,0.793-15.486,0.823-23.188-0.014C4380.247,1732.774,4380.305,1727.731,4380.688,1722.724z M4407.62,1722.318
	c0.016,5.204,0.065,10.414,0.511,15.603c6.458,0.636,12.99,0.667,19.45-0.003c0.188-1.228,0.331-2.461,0.419-3.696
	c-5.251,0.502-10.017,1.102-15.341,0.448c-0.207-4.113-0.233-8.236-0.187-12.354
	C4410.854,1722.327,4409.235,1722.321,4407.62,1722.318"/>
</svg>
