<?xml version="1.0" encoding="UTF-8"?>
<svg viewBox="0 0 8809 1022" version="1.1" xmlns="http://www.w3.org/2000/svg" xmlns:xlink="http://www.w3.org/1999/xlink">
    <title>logo-horizontal</title>
    <g id="logo-horizontal" fill="#000000" fill-rule="nonzero">
        <path d="M8808.353,110.128 L8808.353,10.933 L8285.392,10.933 L8285.392,1006.991 L8808.353,1006.991 L8808.353,907.388 L8385.014,907.388 L8385.014,558.384 L8758.537,558.384 L8758.537,459.189 L8385.014,458.762 L8385.014,110.128 L8808.353,110.128 Z M6007.524,1006.991 L6530.504,1006.991 L6530.504,907.388 L6107.165,907.388 L6107.165,558.384 L6480.688,558.384 L6480.688,459.189 L6107.165,458.762 L6107.165,110.128 L6530.504,110.128 L6530.504,10.933 L6007.524,10.933 L6007.524,1006.991 L6007.524,1006.991 Z M2629.111,110.545 L2629.111,1007.057 L2728.723,1007.057 L2728.723,110.545 L3002.662,110.545 L3002.662,10.933 L2355.162,10.933 L2355.162,110.545 L2629.11,110.545 L2629.111,110.545 Z M5127.737,10.933 L5028.134,10.933 L5028.134,680.145 L4459.823,10.933 L4329.083,10.933 L4378.975,69.614 L4378.975,1007.058 L4478.587,1007.058 L4478.587,186.749 L5028.134,833.908 L5028.134,1006.992 L5127.737,1006.992 L5127.737,10.933 L5127.737,10.933 Z M1156.2,1022 C1356.326,1022 1518.544,859.781 1518.544,659.656 L1518.544,10.933 L1418.941,10.933 L1418.941,670.417 L1418.657,670.682 C1412.873,810.657 1297.607,922.387 1156.2,922.387 C1014.793,922.387 899.546,810.657 893.753,670.682 L893.478,670.417 L893.478,10.933 L793.856,10.933 L793.856,659.665 C793.856,859.781 956.094,1022 1156.2,1022 L1156.2,1022 L1156.2,1022 Z M273.948,110.545 L273.948,1007.057 L373.551,1007.057 L373.551,110.545 L647.49,110.545 L647.49,10.933 L0,10.933 L0,110.545 L273.948,110.545 Z M1678.478,1007.057 L1778.09,1007.057 L1778.09,558.81 L2151.613,558.383 L2151.613,459.188 L1778.09,459.188 L1778.09,110.544 L2201.429,110.127 L2201.429,10.932 L1678.478,10.932 L1678.478,1007.057 L1678.478,1007.057 Z M8096.2,1007 L8096.2,907.397 L7672.908,907.397 L7672.908,10.932 L7573.296,10.932 L7573.296,1007 L8096.2,1007 L8096.2,1007 Z M5310.35,10.933 L5310.35,1006.991 L5833.311,1006.991 L5833.311,907.388 L5409.982,907.388 L5409.982,558.384 L5783.505,558.384 L5783.505,459.189 L5409.982,458.762 L5409.982,110.128 L5833.311,110.128 L5833.311,10.933 L5310.35,10.933 Z M6909.042,907.388 L6819.376,907.388 L6819.376,110.488 L6909.042,110.488 C7129.098,110.488 7307.482,288.873 7307.482,508.928 C7307.482,729.003 7129.088,907.388 6909.042,907.388 L6909.042,907.388 L6909.042,907.388 Z M6909.042,10.933 L6719.763,10.933 L6719.763,1007.001 L6909.042,1007.001 C7184.119,1007.001 7407.095,784.016 7407.095,508.939 C7407.095,233.853 7184.11,10.933 6909.042,10.933 L6909.042,10.933 L6909.042,10.933 Z M3324.53,528.072 C3393.849,635.317 3520.664,776.942 3693.872,872.098 C3660.763,890.236 3623.984,904.667 3583.403,913.134 C3487.128,933.235 3394.2,919.088 3328.436,874.355 C3279.692,841.198 3249.759,794.17 3239.509,734.579 C3226.813,660.87 3259.06,584.155 3324.529,528.072 L3324.529,528.072 L3324.53,528.072 Z M3141.348,751.484 C3156.149,837.491 3201.461,908.478 3272.401,956.73 C3335.112,999.378 3414.443,1021.602 3499.264,1021.602 C3533.435,1021.602 3568.507,1017.99 3603.731,1010.641 C3681.223,994.485 3746.731,961.698 3801.249,922.16 C3868.672,948.215 3941.594,966.524 4019.56,973.455 L4019.56,973.474 C4053.38,975.949 4069.357,975.38 4069.357,975.38 L4069.357,875.843 C4069.357,875.843 4053.58,875.881 4020.224,873.444 C3973.746,868.741 3929.259,859.487 3886.924,846.611 C3937.83,792.889 3984.242,726.869 4015.171,654.668 L4084.206,654.668 L4084.206,555.046 L3831.781,555.046 L3831.781,654.668 L3903.461,654.668 C3877.292,706.048 3842.296,751.237 3784.355,806.96 C3589.093,714.753 3451.811,551.87 3390.485,445.014 C3318.672,319.925 3318.577,224.304 3390.153,152.719 C3423.755,119.126 3468.413,100.457 3515.915,100.163 C3564.365,100.068 3609.791,118.529 3643.991,152.719 C3675.934,184.662 3696.566,234.497 3696.566,279.657 L3696.566,281.724 C3696.158,312.766 3696.566,329.473 3696.566,329.473 L3796.178,329.473 L3796.178,279.657 C3796.178,208.347 3764.861,132.722 3714.448,82.3 C3661.674,29.536 3591.672,0.56 3517.119,0.56 L3515.289,0.56 C3441.419,1.025 3371.976,30.047 3319.705,82.3 C3253.278,148.727 3196,262.856 3275.73,439.373 C3172.771,518.79 3121.533,636.417 3141.349,751.484 L3141.349,751.484 L3141.348,751.484 Z" id="Shape"></path>
    </g>
</svg>